<svg width="32" height="32" viewBox="0 0 32 32" fill="none" xmlns="http://www.w3.org/2000/svg">
<g clip-path="url(#clip0_33_714)">
<path fill-rule="evenodd" clip-rule="evenodd" d="M16.0001 0C24.8369 0 32.0001 7.34389 32.0001 16.4047C32.0001 23.6511 27.4209 29.7983 21.0673 31.9695C20.2561 32.1311 19.9681 31.6188 19.9681 31.182C19.9681 30.6412 19.9873 28.8749 19.9873 26.6797C19.9873 25.1501 19.4753 24.1518 18.9009 23.643C22.4641 23.2366 26.2081 21.8492 26.2081 15.5484C26.2081 13.7564 25.5873 12.2941 24.5601 11.1453C24.7265 10.7309 25.2753 9.06233 24.4033 6.80312C24.4033 6.80312 23.0625 6.36356 20.0081 8.48516C18.7297 8.12196 17.3601 7.93921 16.0001 7.93281C14.6401 7.93921 13.2721 8.12196 11.9953 8.48516C8.93766 6.36356 7.59366 6.80312 7.59366 6.80312C6.72486 9.06233 7.27366 10.7309 7.43846 11.1453C6.41606 12.2941 5.79047 13.7564 5.79047 15.5484C5.79047 21.8332 9.52647 23.2418 13.0801 23.6562C12.6225 24.0659 12.2081 24.7884 12.0641 25.8492C11.1521 26.2684 8.83526 26.9939 7.40806 24.4867C7.40806 24.4867 6.56166 22.9105 4.95526 22.7953C4.95526 22.7953 3.39526 22.7746 4.84646 23.7922C4.84646 23.7922 5.89446 24.2962 6.62246 26.1922C6.62246 26.1922 7.56167 29.1201 12.0129 28.1281C12.0209 29.4993 12.0353 30.7916 12.0353 31.182C12.0353 31.6156 11.7409 32.1231 10.9425 31.9711C4.58406 29.8031 6.10352e-05 23.6527 6.10352e-05 16.4047C6.10352e-05 7.34389 7.16486 0 16.0001 0Z" fill="white"/>
</g>
<defs>
<clipPath id="clip0_33_714">
<rect width="32" height="32" fill="white"/>
</clipPath>
</defs>
</svg>
