<svg version="1.2" xmlns="http://www.w3.org/2000/svg" viewBox="0 0 32 32" width="32" height="32">
	<style>
		.s0 { fill: #ffffff } 
	</style>
	<path id="Farbfüllung 1" fill-rule="evenodd" class="s0" d="m15.86 0.01c0.37-0.01 0.92 0.01 1.22 0.03 0.29 0.02 0.74 0.07 0.99 0.1 0.26 0.03 0.74 0.12 1.08 0.18 0.34 0.07 0.93 0.22 1.3 0.33 0.37 0.1 0.97 0.31 1.34 0.45 0.36 0.15 0.93 0.4 1.27 0.57 0.34 0.17 0.81 0.42 1.04 0.56 0.23 0.14 0.59 0.37 0.8 0.51 0.21 0.14 0.57 0.4 0.82 0.59 0.24 0.19 0.62 0.51 0.85 0.71 0.23 0.2 0.64 0.6 0.91 0.89 0.28 0.28 0.67 0.73 0.89 1 0.21 0.26 0.5 0.64 0.64 0.85 0.15 0.21 0.38 0.55 0.51 0.76 0.13 0.21 0.37 0.62 0.52 0.92 0.16 0.3 0.39 0.76 0.51 1.04 0.12 0.27 0.3 0.71 0.4 0.97 0.09 0.27 0.22 0.63 0.27 0.8 0.05 0.18 0.15 0.54 0.22 0.8 0.06 0.26 0.16 0.72 0.22 1.02 0.05 0.29 0.13 0.81 0.17 1.13 0.05 0.43 0.07 0.92 0.07 1.72 0 0.63-0.02 1.32-0.05 1.58-0.03 0.25-0.1 0.72-0.15 1.05-0.05 0.33-0.16 0.86-0.24 1.18-0.08 0.32-0.19 0.72-0.24 0.9-0.05 0.17-0.18 0.53-0.27 0.8-0.1 0.26-0.28 0.7-0.4 0.97-0.12 0.28-0.35 0.75-0.51 1.04-0.15 0.3-0.39 0.71-0.52 0.92-0.13 0.21-0.36 0.55-0.51 0.76-0.14 0.21-0.43 0.59-0.64 0.86-0.22 0.26-0.61 0.71-0.89 0.99-0.27 0.29-0.68 0.69-0.91 0.89-0.23 0.2-0.61 0.52-0.85 0.71-0.25 0.19-0.64 0.47-0.88 0.63-0.24 0.16-0.67 0.42-0.94 0.58-0.27 0.16-0.72 0.4-1 0.53-0.27 0.13-0.78 0.35-1.13 0.49-0.36 0.14-0.93 0.34-1.28 0.44-0.35 0.11-0.93 0.25-1.28 0.32-0.35 0.08-0.85 0.16-1.12 0.2-0.26 0.03-0.72 0.08-1.01 0.1-0.3 0.02-0.8 0.04-1.12 0.04-0.32 0-0.82-0.02-1.12-0.04-0.29-0.02-0.75-0.07-1.01-0.1-0.27-0.04-0.77-0.12-1.12-0.2-0.35-0.07-0.93-0.21-1.28-0.32-0.35-0.1-0.93-0.3-1.3-0.44-0.36-0.15-0.93-0.4-1.27-0.57-0.34-0.17-0.81-0.42-1.04-0.56-0.23-0.14-0.58-0.36-0.78-0.5-0.2-0.13-0.5-0.34-0.68-0.48-0.17-0.13-0.48-0.37-0.67-0.54-0.2-0.16-0.67-0.6-1.04-0.98-0.38-0.37-0.86-0.9-1.08-1.18-0.22-0.27-0.52-0.66-0.66-0.87-0.15-0.21-0.38-0.55-0.51-0.76-0.13-0.21-0.36-0.62-0.52-0.92-0.16-0.29-0.39-0.76-0.51-1.04-0.12-0.27-0.31-0.73-0.41-1.01-0.11-0.29-0.26-0.75-0.33-1.02-0.08-0.28-0.19-0.71-0.25-0.96-0.05-0.25-0.13-0.68-0.18-0.96-0.04-0.27-0.1-0.7-0.13-0.95-0.03-0.26-0.05-0.95-0.05-1.58 0-0.64 0.02-1.31 0.05-1.56 0.03-0.24 0.09-0.66 0.13-0.93 0.05-0.28 0.13-0.71 0.18-0.96 0.06-0.25 0.17-0.68 0.25-0.96 0.07-0.27 0.22-0.73 0.33-1.02 0.1-0.28 0.29-0.74 0.41-1.01 0.12-0.28 0.35-0.74 0.51-1.04 0.16-0.3 0.39-0.71 0.52-0.92 0.13-0.21 0.36-0.55 0.51-0.76 0.14-0.21 0.44-0.6 0.66-0.87 0.22-0.28 0.62-0.73 0.88-1 0.27-0.28 0.67-0.67 0.9-0.87 0.23-0.2 0.61-0.52 0.85-0.71 0.25-0.19 0.64-0.47 0.88-0.63 0.24-0.16 0.67-0.42 0.94-0.58 0.27-0.16 0.71-0.39 0.96-0.51 0.25-0.12 0.74-0.34 1.09-0.48 0.36-0.14 0.97-0.35 1.36-0.47 0.4-0.12 1.04-0.28 1.44-0.35 0.39-0.08 0.9-0.16 1.12-0.19 0.21-0.02 0.57-0.06 0.79-0.08 0.22-0.01 0.71-0.03 1.08-0.03zm-7.52 6.16c-0.12 0.03-0.32 0.12-0.44 0.19-0.12 0.07-0.31 0.21-0.42 0.32-0.11 0.12-0.25 0.3-0.31 0.42-0.06 0.12-0.13 0.33-0.17 0.46-0.03 0.13-0.06 0.32-0.06 0.42 0 0.1 0.03 0.3 0.07 0.44 0.03 0.14 0.11 0.36 0.18 0.49 0.07 0.13 0.23 0.33 0.35 0.45 0.12 0.11 0.31 0.25 0.43 0.31 0.12 0.06 0.31 0.13 0.44 0.17 0.13 0.03 0.32 0.06 0.43 0.05 0.11 0 0.31-0.02 0.46-0.06 0.14-0.03 0.35-0.11 0.45-0.17 0.11-0.06 0.3-0.2 0.43-0.32 0.16-0.16 0.27-0.32 0.38-0.54 0.14-0.29 0.15-0.36 0.17-0.7 0.01-0.28-0.01-0.44-0.06-0.62-0.03-0.13-0.12-0.34-0.2-0.46-0.07-0.12-0.22-0.3-0.34-0.41-0.12-0.11-0.3-0.24-0.39-0.29-0.1-0.05-0.28-0.12-0.4-0.15-0.12-0.04-0.35-0.06-0.5-0.06-0.16 0-0.38 0.03-0.5 0.06zm12.65 4.59c-0.08 0.01-0.33 0.05-0.56 0.1-0.23 0.04-0.61 0.15-0.84 0.23-0.23 0.08-0.61 0.25-0.84 0.38-0.23 0.13-0.54 0.34-0.7 0.46-0.15 0.13-0.35 0.3-0.44 0.38-0.08 0.09-0.23 0.25-0.33 0.36l-0.17 0.2 0.01-1.74h-3.83v12.69h3.83c0-6.7 0.01-7.24 0.06-7.46 0.03-0.14 0.12-0.39 0.2-0.54 0.07-0.15 0.23-0.4 0.34-0.56 0.12-0.15 0.34-0.37 0.49-0.49 0.16-0.12 0.36-0.26 0.44-0.31 0.09-0.05 0.3-0.14 0.46-0.2 0.17-0.06 0.45-0.12 0.64-0.15 0.25-0.03 0.43-0.03 0.68 0 0.24 0.04 0.42 0.09 0.62 0.19q0.28 0.13 0.47 0.35c0.1 0.12 0.23 0.29 0.28 0.39 0.06 0.1 0.15 0.34 0.2 0.54 0.06 0.2 0.12 0.55 0.15 0.78 0.02 0.23 0.03 1.96 0.03 3.94v3.52h3.8c-0.01-5.87-0.02-7.77-0.05-8.1-0.02-0.32-0.07-0.8-0.12-1.08-0.04-0.27-0.14-0.69-0.21-0.93-0.08-0.25-0.2-0.59-0.28-0.76-0.08-0.18-0.23-0.45-0.34-0.6-0.1-0.15-0.29-0.39-0.42-0.53-0.13-0.15-0.34-0.33-0.46-0.41-0.12-0.08-0.35-0.21-0.52-0.3-0.16-0.08-0.47-0.19-0.68-0.25-0.32-0.08-0.48-0.1-1.07-0.11-0.39 0-0.77 0-0.84 0.01zm-14.01 13.06h3.79v-12.65h-3.79z"/>
</svg>