<svg width="32" height="32" viewBox="0 0 32 32" fill="none" xmlns="http://www.w3.org/2000/svg">
<circle cx="16.0001" cy="16" r="16" fill="white"/>
<g clip-path="url(#clip0_33_708)">
<path fill-rule="evenodd" clip-rule="evenodd" d="M26.0001 24.1365H21.8008V18.0644C21.8008 16.4751 21.1439 15.3901 19.6995 15.3901C18.5947 15.3901 17.9802 16.1223 17.6943 16.8279C17.587 17.0812 17.6038 17.434 17.6038 17.7868V24.1365H13.4436C13.4436 24.1365 13.4972 13.3804 13.4436 12.4027H17.6038V14.2443C17.8495 13.4391 19.1789 12.2899 21.3003 12.2899C23.9323 12.2899 26.0001 13.9777 26.0001 17.6121V24.1365ZM9.23653 10.935H9.20973C7.86918 10.935 7.00006 10.038 7.00006 8.90106C7.00006 7.74195 7.89487 6.86377 9.26223 6.86377C10.6285 6.86377 11.4685 7.73974 11.4954 8.89775C11.4954 10.0347 10.6285 10.935 9.23653 10.935ZM7.47929 12.4027H11.1826V24.1365H7.47929V12.4027Z" fill="#290509"/>
</g>
<defs>
<clipPath id="clip0_33_708">
<rect width="19" height="19" fill="white" transform="translate(7.00006 6)"/>
</clipPath>
</defs>
</svg>
