<svg width="38" height="42" viewBox="0 0 38 42" fill="none" xmlns="http://www.w3.org/2000/svg">
<path d="M35.5462 9.55529L20.6712 0.945287C20.1708 0.657383 19.6036 0.505859 19.0262 0.505859C18.4489 0.505859 17.8817 0.657383 17.3812 0.945287L2.50625 9.55529C2.00794 9.84401 1.5944 10.2588 1.30718 10.758C1.01996 11.2571 0.869185 11.8231 0.869998 12.399V29.6015C0.869185 30.1774 1.01996 30.7434 1.30718 31.2426C1.5944 31.7418 2.00794 32.1566 2.50625 32.4453L17.3812 41.0553C17.8817 41.3432 18.4489 41.4947 19.0262 41.4947C19.6036 41.4947 20.1708 41.3432 20.6712 41.0553L35.5462 32.4453C36.0446 32.1566 36.4581 31.7418 36.7453 31.2426C37.0325 30.7434 37.1833 30.1774 37.1825 29.6015V12.399C37.1833 11.8231 37.0325 11.2571 36.7453 10.758C36.4581 10.2588 36.0446 9.84401 35.5462 9.55529ZM18.7375 32.5065C11.2562 32.5065 7.415 27.7465 7.415 21.1315C7.415 14.5165 11.79 9.42404 19.0525 9.42404C27.155 9.42404 29.4125 14.7615 29.5525 17.299H23.0425C22.64 15.4965 21.5287 14.2453 18.93 14.2453C15.885 14.2453 14.1612 16.6953 14.1612 20.974C14.1612 25.6728 15.99 27.8165 18.9037 27.8165C19.8153 27.8668 20.7171 27.6071 21.4622 27.0797C22.2073 26.5522 22.752 25.788 23.0075 24.9115H29.5437C28.7125 28.5428 25.895 32.5065 18.7375 32.5065ZM33.98 20.2565H33.105L32.8425 21.3328H33.5513V22.304H32.6237L32.2475 23.8703H31.3725L31.7575 22.304H30.7863L30.375 23.8353H29.5L29.885 22.269H29.2025V21.2978H30.13L30.375 20.2215H29.6313V19.2503H30.6112L30.97 17.8065H31.845L31.5213 19.2503H32.4925L32.8425 17.8065H33.7175L33.3587 19.2503H33.9888L33.98 20.2565Z" fill="white"/>
</svg>
