<svg version="1.2" xmlns="http://www.w3.org/2000/svg" viewBox="0 0 34 44" width="34" height="44">
	<defs>
		<clipPath clipPathUnits="userSpaceOnUse" id="cp1">
			<path d="m-5 0h44v44h-44z"/>
		</clipPath>
	</defs>
	<style>
		.s0 { fill: #ffffff } 
	</style>
	<g id="Clip-Path" clip-path="url(#cp1)">
		<g>
			<path class="s0" d="m33.92 11.11h-7.15v14.2c0 6.26-0.32 8.64-1.34 10.7-0.98 2.01-2.51 3.32-5.66 4.81l6.63 3.18c3.16-1.59 4.69-3.04 5.85-5.33 1.25-2.38 1.67-5.13 1.67-10.88z"/>
			<path class="s0" d="m22.55 33.3v-33.3h-7.15v10.97c-1.06-0.28-1.95-0.37-3.1-0.37-7.47 0-12.3 4.76-12.3 12.1 0 7.61 4.55 11.58 13.27 11.58 2.92 0.01 5.61-0.28 9.28-0.98zm-15.27-10.74c0-3.93 2.09-6.17 5.71-6.17h-0.01q0.08 0 0.15 0c0.82 0 1.6 0.13 2.27 0.37v11.54c-1.02 0.14-1.67 0.19-2.46 0.19-3.66 0-5.66-2.1-5.66-5.93z"/>
			<path class="s0" d="m33.92 0.04h-7.15v7.38h7.15z"/>
		</g>
	</g>
</svg>