<svg width="45" height="32" viewBox="0 0 45 32" fill="none" xmlns="http://www.w3.org/2000/svg">
<g clip-path="url(#clip0_89_660)">
<path d="M20.1308 14.564V10.352H24.8068V14.564H20.1308ZM24.8068 0V4.356H20.1308V0H24.8068ZM30.3352 10.36V14.572H25.6592V10.36H30.3352ZM19.2798 5.22V9.504H14.6037V5.22H19.2798ZM24.8082 5.22V9.504H20.1308V5.22H24.8082ZM44.4414 12.3507L45.3626 12.9933L44.7246 14.212C44.0576 15.5427 42.9021 16.544 41.5032 16.9867L41.4648 16.9973C40.5886 17.2707 39.5814 17.4293 38.5384 17.4293C38.4458 17.4293 38.3545 17.428 38.2632 17.4253H38.2764C36.4764 21.9707 33.3899 25.6787 29.4723 28.188L29.3823 28.2427C25.4951 30.604 20.8005 32.0013 15.7817 32.0013C15.517 32.0013 15.2549 31.9973 14.9915 31.9893L15.0299 31.9907C9.83286 31.9907 5.91124 30.42 3.26506 27.2787C1.99845 25.6987 1.04153 23.808 0.522711 21.7427L0.501534 21.6413C0.185211 20.4893 0.00256348 19.1653 0.00256348 17.8C0.00256348 17.0653 0.0555047 16.3413 0.157416 15.6347L0.148152 15.7147H30.9784C31.0367 15.716 31.1055 15.7173 31.1743 15.7173C32.3457 15.7173 33.4495 15.4253 34.4183 14.9107L34.3799 14.9293C33.8293 14.0373 33.5024 12.9547 33.5024 11.796C33.5024 11.592 33.513 11.3907 33.5329 11.192L33.5302 11.2173C33.5951 9.836 34.008 8.56267 34.683 7.472L34.6645 7.50533L35.3739 6.50533L36.3665 7.22C37.874 8.24133 38.9395 9.828 39.2637 11.672L39.2704 11.7133C39.7865 11.6307 40.3834 11.584 40.9896 11.584C41.3959 11.584 41.797 11.6053 42.1927 11.6467L42.1437 11.6427C43.0001 11.6747 43.7915 11.936 44.4639 12.3653L44.4454 12.3533L44.4414 12.3507ZM8.22565 10.352V14.564H3.5483V10.352H8.22565ZM13.754 10.352V14.564H9.07933V10.352H13.754ZM19.2824 10.352V14.564H14.6037V10.352H19.2824ZM13.7527 5.212V9.496H9.07933V5.212H13.7527Z" fill="white"/>
</g>
<defs>
<clipPath id="clip0_89_660">
<rect width="45" height="32" fill="white"/>
</clipPath>
</defs>
</svg>
