<svg width="31" height="45" viewBox="0 0 31 45" fill="none" xmlns="http://www.w3.org/2000/svg">
<path d="M0.900024 37.1064C0.900024 35.1704 1.66913 33.3136 3.03814 31.9446C4.40716 30.5756 6.26394 29.8064 8.20003 29.8064H15.5V37.1064C15.5 39.0425 14.7309 40.8993 13.3619 42.2683C11.9929 43.6373 10.1361 44.4064 8.20003 44.4064C6.26394 44.4064 4.40716 43.6373 3.03814 42.2683C1.66913 40.8993 0.900024 39.0425 0.900024 37.1064ZM8.20003 29.8064H15.5V15.2064H8.20003C6.26394 15.2064 4.40716 15.9756 3.03814 17.3446C1.66913 18.7136 0.900024 20.5704 0.900024 22.5064C0.900024 24.4425 1.66913 26.2993 3.03814 27.6683C4.40716 29.0373 6.26394 29.8064 8.20003 29.8064ZM8.20003 15.2064H15.5V0.606445H8.20003C6.26394 0.606445 4.40716 1.37555 3.03814 2.74457C1.66913 4.11358 0.900024 5.97036 0.900024 7.90645C0.900024 9.84253 1.66913 11.6993 3.03814 13.0683C4.40716 14.4373 6.26394 15.2064 8.20003 15.2064ZM15.5 15.2064H22.8C24.7361 15.2064 26.5929 14.4373 27.9619 13.0683C29.3309 11.6993 30.1 9.84253 30.1 7.90645C30.1 5.97036 29.3309 4.11358 27.9619 2.74457C26.5929 1.37555 24.7361 0.606445 22.8 0.606445H15.5V15.2064ZM22.8 15.2064C21.3562 15.2064 19.9448 15.6346 18.7444 16.4367C17.5439 17.2389 16.6082 18.379 16.0557 19.7129C15.5032 21.0468 15.3586 22.5145 15.6403 23.9306C15.922 25.3467 16.6172 26.6474 17.6381 27.6683C18.6591 28.6892 19.9598 29.3845 21.3759 29.6662C22.7919 29.9478 24.2597 29.8033 25.5936 29.2508C26.9275 28.6982 28.0676 27.7626 28.8698 26.5621C29.6719 25.3616 30.1 23.9502 30.1 22.5064C30.1 20.5704 29.3309 18.7136 27.9619 17.3446C26.5929 15.9756 24.7361 15.2064 22.8 15.2064Z" fill="white"/>
</svg>
