<svg width="31" height="41" viewBox="0 0 31 41" fill="none" xmlns="http://www.w3.org/2000/svg">
<path d="M1.69634 26.7536L5.72047 0.861209C5.75001 0.669458 5.8391 0.491851 5.97514 0.353523C6.11117 0.215194 6.28727 0.123148 6.4785 0.0904111C6.66973 0.0576738 6.86641 0.0859026 7.04072 0.171103C7.21502 0.256304 7.35812 0.394161 7.44976 0.565167L11.7781 8.68896L1.69634 26.7536ZM30.2817 33.0358L26.4495 9.20754C26.4207 9.04078 26.3467 8.88509 26.2357 8.75737C26.1246 8.62965 25.9807 8.53477 25.8196 8.48303C25.6584 8.43128 25.4862 8.42463 25.3216 8.46381C25.1569 8.503 25.0061 8.58651 24.8856 8.70529L0.718384 33.0358L14.0913 40.5716C14.9304 41.0412 15.9533 41.0412 16.7924 40.5716L30.2817 33.0358ZM19.4139 12.2415L16.3167 6.3145C16.2384 6.16571 16.121 6.04114 15.977 5.95424C15.8331 5.86734 15.6682 5.82141 15.5 5.82141C15.3319 5.82141 15.167 5.86734 15.0231 5.95424C14.8791 6.04114 14.7617 6.16571 14.6834 6.3145L1.08384 30.6859L19.4139 12.2415Z" fill="white"/>
</svg>
