<svg width="43" height="43" viewBox="0 0 43 43" fill="none" xmlns="http://www.w3.org/2000/svg">
<path fill-rule="evenodd" clip-rule="evenodd" d="M21.2215 1.69238C10.1641 1.69238 1.19763 10.6568 1.19763 21.7162C1.19763 30.5636 6.93507 38.0691 14.8911 40.7171C15.8915 40.9028 16.2589 40.2827 16.2589 39.7538C16.2589 39.2764 16.2404 37.699 16.2318 36.0258C10.6611 37.2371 9.48563 33.6633 9.48563 33.6633C8.57476 31.3488 7.26234 30.7334 7.26234 30.7334C5.44525 29.4906 7.39929 29.5164 7.39929 29.5164C9.4097 29.6574 10.4688 31.5799 10.4688 31.5799C12.2547 34.6404 15.1531 33.7558 16.2957 33.2445C16.4755 31.9503 16.9944 31.0666 17.5671 30.5666C13.1195 30.0609 8.44379 28.3436 8.44379 20.6711C8.44379 18.4849 9.22633 16.6987 10.5072 15.296C10.299 14.792 9.61362 12.7554 10.7009 9.99729C10.7009 9.99729 12.382 9.45913 16.2085 12.0498C17.8061 11.6058 19.5194 11.3827 21.2215 11.375C22.9225 11.3827 24.6368 11.6052 26.2374 12.0491C30.0592 9.45846 31.7384 9.99663 31.7384 9.99663C32.8283 12.7544 32.1429 14.7914 31.935 15.2954C33.2189 16.698 33.9958 18.4842 33.9958 20.6704C33.9958 28.3612 29.3115 30.0543 24.8527 30.5503C25.5712 31.1717 26.2112 32.3906 26.2112 34.2585C26.2112 36.9377 26.188 39.094 26.188 39.7535C26.188 40.2864 26.5487 40.9107 27.5634 40.7141C35.5148 38.0634 41.2456 30.5603 41.2456 21.7162C41.2453 10.6575 32.2799 1.69238 21.2215 1.69238Z" fill="white"/>
<path d="M8.78162 30.4415C8.73752 30.541 8.58101 30.5708 8.43843 30.5028C8.29253 30.4379 8.21129 30.3022 8.25838 30.2024C8.30148 30.0996 8.45832 30.0714 8.60322 30.1401C8.74912 30.2054 8.83202 30.3424 8.78129 30.4418L8.78162 30.4415ZM9.59268 31.3464C9.49751 31.4349 9.31083 31.3938 9.18416 31.2536C9.05286 31.1143 9.02832 30.9276 9.12547 30.8377C9.22429 30.7495 9.40533 30.7913 9.53664 30.9306C9.66729 31.0718 9.69315 31.2569 9.59301 31.3467L9.59268 31.3464ZM10.3825 32.4993C10.2598 32.5849 10.0589 32.505 9.93488 32.3269C9.81219 32.1485 9.81219 31.9346 9.93819 31.8494C10.0619 31.7639 10.2598 31.8411 10.3858 32.0175C10.5079 32.1982 10.5079 32.4124 10.3825 32.4993ZM11.4638 33.6138C11.3544 33.7348 11.1203 33.7023 10.9492 33.5375C10.7745 33.376 10.7257 33.1462 10.8355 33.0255C10.9469 32.9042 11.182 32.938 11.3541 33.1018C11.5288 33.263 11.5815 33.4931 11.4645 33.6135L11.4638 33.6138ZM12.956 34.2607C12.9072 34.4175 12.6824 34.4888 12.4553 34.4219C12.2288 34.3532 12.0806 34.1699 12.127 34.0114C12.1734 33.8532 12.3999 33.7792 12.6284 33.8505C12.8548 33.9188 13.003 34.1012 12.956 34.2607ZM14.595 34.3804C14.6006 34.5455 14.4083 34.6822 14.1706 34.6855C13.9308 34.6911 13.7368 34.5571 13.7345 34.3947C13.7345 34.2279 13.9229 34.0929 14.1623 34.0883C14.4 34.084 14.5953 34.2166 14.5953 34.3801L14.595 34.3804ZM16.1196 34.1211C16.1481 34.2819 15.9827 34.4474 15.7463 34.4915C15.5141 34.5346 15.2986 34.4345 15.2688 34.275C15.2403 34.1098 15.4087 33.9444 15.6408 33.9016C15.8776 33.8608 16.0898 33.9576 16.1196 34.1211Z" fill="white"/>
</svg>
