<svg width="42" height="42" viewBox="0 0 42 42" fill="none" xmlns="http://www.w3.org/2000/svg">
<g clip-path="url(#clip0_89_600)">
<path d="M0 42H42V0H0V42ZM34.622 32.6007C34.1758 30.919 30.6827 30.527 28.294 28.742C25.879 27.1145 25.3032 23.177 27.2983 20.9177C27.9807 20.0777 29.1077 19.4478 30.2908 19.159L31.5245 19.0033C33.9132 18.949 35.3815 19.579 36.484 20.8127C36.8025 21.126 37.037 21.4428 37.5095 22.1777C36.2477 22.9635 36.2478 22.9635 34.4383 24.1465C34.0428 23.3065 33.4128 22.7815 32.7302 22.5715C31.6802 22.2565 30.3415 22.596 30.079 23.7265C29.9757 24.0677 30.0002 24.3827 30.1595 24.9602C30.5847 25.9315 32.0163 26.3515 33.3042 26.9552C37.0055 28.4567 38.2533 30.0667 38.5595 31.983L38.479 31.8657C38.7695 33.5195 38.4002 34.5957 38.3495 34.7533C36.9827 39.4258 29.3703 39.5833 26.3253 36.5103C25.6952 35.7753 25.2752 35.4095 24.9077 34.5695L28.1102 32.7302C28.9765 34.0427 29.7623 34.7533 31.1815 35.0682C33.0995 35.3045 35.042 34.6483 34.622 32.6007ZM14.2328 33.208C14.2625 33.208 14.3448 33.3673 14.455 33.551C14.8628 34.2318 15.2145 34.7043 15.9075 35.0472C16.583 35.259 18.0705 35.413 18.648 34.2073C18.9998 33.5983 18.8895 31.619 18.8895 29.463C18.8895 26.0662 18.9053 22.6957 18.9053 19.3043H22.8392L22.8323 19.4023C22.8323 23.0247 22.8533 26.621 22.8323 30.2155C22.841 32.4485 23.03 34.4435 22.1375 36.071C21.5197 37.331 20.3385 38.1448 18.9683 38.5403C16.863 39.0128 14.8523 38.724 13.356 37.8315C12.3515 37.2277 11.5728 36.2793 11.039 35.1768L14.2328 33.208Z" fill="white"/>
</g>
<defs>
<clipPath id="clip0_89_600">
<rect width="42" height="42" fill="white"/>
</clipPath>
</defs>
</svg>
