<svg width="44" height="44" viewBox="0 0 44 44" fill="none" xmlns="http://www.w3.org/2000/svg">
<g clip-path="url(#clip0_89_642)">
<path d="M21.4994 -0.000239583C19.7265 0.00159375 17.9904 0.157427 16.3037 0.454427L16.4834 0.42876C12.0412 1.21343 11.2364 2.85609 11.2364 5.88476V9.88509H21.734V11.2179H7.29838C7.26171 11.2179 7.21954 11.2161 7.17738 11.2161C3.99288 11.2161 1.34004 13.4876 0.747876 16.4979L0.740542 16.5401C0.271209 18.1388 0.00170898 19.9758 0.00170898 21.8751C0.00170898 23.7744 0.271209 25.6114 0.775376 27.3476L0.740542 27.2083C1.48671 30.3158 3.26871 32.5286 6.31388 32.5286H9.92371V27.7326C10.0062 24.1521 12.8974 21.2738 16.476 21.2114H16.4815H26.9664C29.8704 21.1876 32.2152 18.8299 32.2152 15.9223C32.2152 15.9058 32.2152 15.8911 32.2152 15.8746V5.88109C32.0245 3.01926 29.8062 0.729427 26.9939 0.426927L26.9682 0.425094C25.3805 0.151927 23.5527 -0.00390625 21.69 -0.00390625C21.624 -0.00390625 21.5599 -0.00390625 21.4939 -0.00390625H21.503L21.4994 -0.000239583ZM15.8234 3.21726H15.8545C16.96 3.21726 17.8547 4.11376 17.8547 5.21743C17.8547 6.32109 16.9582 7.21759 15.8545 7.21759C14.7527 7.21759 13.858 6.32476 13.8544 5.22293C13.8544 5.21926 13.8544 5.21376 13.8544 5.20826C13.8544 4.11559 14.7344 3.22826 15.8234 3.21726Z" fill="white"/>
<path d="M33.5261 11.2178V15.8781C33.4858 19.5026 30.5855 22.4378 26.9775 22.5331H26.9683H16.4834C13.5795 22.5936 11.2475 24.9568 11.2365 27.8663V37.8634C11.2365 40.7069 13.7096 42.3808 16.4834 43.1984C18.051 43.7063 19.8549 43.9996 21.7268 43.9996C23.5986 43.9996 25.4026 43.7063 27.0929 43.1636L26.9683 43.1984C29.6083 42.4339 32.2153 40.8921 32.2153 37.8634V33.8594H21.7304V32.5266H37.4641C40.5148 32.5266 41.6514 30.3981 42.7129 27.2063C43.2263 25.6113 43.5215 23.7761 43.5215 21.8713C43.5215 19.9664 43.2263 18.1313 42.6781 16.4098L42.7129 16.5381C41.9594 13.5021 40.5129 11.2178 37.4641 11.2178H33.5261ZM27.6301 36.5306H27.6613C28.7668 36.5306 29.6615 37.4271 29.6615 38.5308C29.6615 39.6344 28.7649 40.5309 27.6613 40.5309C26.5558 40.5309 25.6611 39.6344 25.6611 38.5308C25.6611 38.5289 25.6611 38.5253 25.6611 38.5234C25.6611 38.5198 25.6611 38.5143 25.6611 38.5106C25.6611 37.4198 26.5411 36.5361 27.6301 36.5306Z" fill="white"/>
</g>
<defs>
<clipPath id="clip0_89_642">
<rect width="44" height="44" fill="white"/>
</clipPath>
</defs>
</svg>
