<svg width="42" height="42" viewBox="0 0 42 42" fill="none" xmlns="http://www.w3.org/2000/svg">
<g clip-path="url(#clip0_89_609)">
<path d="M21 42C32.5972 42 42 32.5972 42 21C42 9.40275 32.5972 0 21 0C9.40275 0 0 9.40275 0 21C0 32.5972 9.40275 42 21 42ZM11.2192 11.8282C13.93 9.2925 17.7013 7.34825 21.182 6.111C27.0357 4.03025 33.222 5.257 34.1705 8.98975L34.0427 8.8725C34.9615 12.5475 31.7852 16.933 27.7183 18.5063C24.0957 19.922 21.0752 19.6875 19.8433 19.2937C18.424 18.8212 17.6103 17.9025 17.4002 17.3775C17.3215 17.1675 17.1903 16.8263 17.4002 16.7213C17.5315 16.6408 17.584 16.667 17.9497 17.0607C18.2927 17.43 19.6315 18.4258 22.204 18.137C28.9502 17.3775 32.991 12.152 31.7082 9.345C30.8157 7.37625 25.6427 6.482 19.159 9.7125C11.2578 13.65 10.8115 16.9032 10.759 18.137C10.5752 21.5233 14.959 23.3083 17.3215 25.8545C17.3985 25.907 17.4528 25.9595 17.5053 26.0382C18.2122 25.7495 19.2115 25.6182 20.7865 25.5903C24.6173 25.5395 26.7715 28.0578 26.6928 30.3153C26.614 32.102 24.9848 32.837 24.696 32.8895C24.4878 32.9158 24.3548 32.9157 24.3285 32.7583C24.304 32.6515 24.3827 32.6007 24.6453 32.4415C24.9095 32.284 25.6672 31.7327 25.8247 30.7895C25.984 29.8445 25.249 27.5345 21.5723 27.1145C20.2598 26.9553 19.2377 27.0602 18.3697 27.2965C19.0033 28.6877 19.1328 31.5228 17.6628 33.7295C16.1403 35.9852 13.3053 37.3783 10.549 36.6152C9.6565 36.3807 8.2915 34.5415 9.47275 31.969C10.5753 29.526 15.281 27.1653 15.9233 26.8503V26.8398C13.7428 24.962 8.44025 22.4315 7.693 18.5623C7.48125 17.465 7.994 14.84 11.2192 11.8282Z" fill="white"/>
<path d="M11.9053 34.5813C12.6368 35.0048 14.3413 34.5008 15.5628 33.1726C15.9635 32.7351 16.289 32.2626 16.534 31.7551C16.5795 31.6571 16.6285 31.5538 16.6705 31.4471L16.7843 31.1321C17.0993 30.1801 17.1325 29.1248 16.8263 27.9961L16.6373 28.1028V28.1081C16.6373 28.1081 14.4515 29.1423 12.9273 30.7488C11.5098 32.2451 11.1178 34.1228 11.9053 34.5813Z" fill="white"/>
</g>
<defs>
<clipPath id="clip0_89_609">
<rect width="42" height="42" fill="white"/>
</clipPath>
</defs>
</svg>
