<svg width="42" height="42" viewBox="0 0 42 42" fill="none" xmlns="http://www.w3.org/2000/svg">
<g clip-path="url(#clip0_89_596)">
<path d="M0.420898 20.5774V41.1549H41.5757V0H0.420898V20.5774ZM25.3933 33.6544C25.5785 33.5498 26.2696 33.1502 26.9229 32.7713L28.1061 32.0854L28.3548 32.4523C28.7011 32.9805 29.4574 33.7058 29.9152 33.9476C31.2287 34.6404 33.031 34.5426 33.9192 33.7453C34.2502 33.4658 34.4577 33.0508 34.4577 32.5878C34.4577 32.5603 34.4577 32.5346 34.456 32.5072V32.5106C34.456 32.0339 34.3959 31.8247 34.1473 31.4646C33.8283 31.0085 33.175 30.6244 31.3196 29.8184C29.1967 28.9044 28.2827 28.3368 27.4459 27.4349C26.9418 26.8621 26.5525 26.1728 26.3262 25.4148L26.3159 25.3771C26.1598 24.7958 26.1204 23.3382 26.2439 22.7518C26.6811 20.6992 28.2296 19.2708 30.4639 18.8455C31.1893 18.7083 32.8749 18.7598 33.5866 18.9364C34.6326 19.197 35.4282 19.6634 36.1605 20.4214C36.5394 20.8261 37.1019 21.5634 37.1465 21.7418C37.1602 21.7932 35.3699 22.9936 34.2862 23.6675C34.2468 23.6932 34.089 23.5234 33.9141 23.2628C33.3825 22.4911 32.8286 22.1585 31.9798 22.1002C30.7314 22.0144 29.9289 22.6677 29.9358 23.7584C29.9358 23.7772 29.9341 23.7995 29.9341 23.8218C29.9341 24.0807 29.9992 24.3242 30.1141 24.5369L30.1107 24.5283C30.3851 25.0959 30.8961 25.4371 32.4942 26.1282C35.442 27.3971 36.7023 28.2322 37.486 29.4206C38.3605 30.7461 38.5577 32.8639 37.9627 34.438C37.3111 36.1494 35.6906 37.312 33.4099 37.6961C32.7052 37.8213 31.0332 37.8024 30.2753 37.6653C28.6223 37.3703 27.0549 36.5541 26.0878 35.4823C25.7088 35.0656 24.9698 33.9733 25.0161 33.8962C25.0349 33.8687 25.2047 33.7641 25.3933 33.6544ZM9.43724 20.6889C9.43724 19.7732 9.4561 19.0084 9.48182 18.9912C9.5024 18.9638 12.7622 18.9501 16.7131 18.957L23.9066 18.9775L23.9255 20.6563L23.9392 22.3419H18.5805V37.5624H14.7908V22.3419H9.43724V20.6889Z" fill="white"/>
</g>
<defs>
<clipPath id="clip0_89_596">
<rect width="41.1549" height="41.1549" fill="white" transform="translate(0.420898)"/>
</clipPath>
</defs>
</svg>
